<svg xmlns="http://www.w3.org/2000/svg" xml:space="preserve" viewBox="0 0 32 32" id="Facebook">
  <g fill="#000" class="color1a1718 svgShape">
    <path d="M16 0C7.164 0 0 7.164 0 16s7.164 16 16 16 16-7.164 16-16S24.836 0 16 0zm0 29.493c-7.453 0-13.494-6.04-13.494-13.493S8.547 2.506 16 2.506 29.494 8.547 29.494 16 23.453 29.493 16 29.493z" fill="#ffffff" class="color000000 svgShape"></path>
    <path d="M16 3.006C8.836 3.006 3.006 8.836 3.006 16S8.836 28.993 16 28.993 28.994 23.164 28.994 16 23.164 3.006 16 3.006zm3.488 12.993h-2.239v8.124h-3.357V16h-1.677v-2.8h1.677v-1.681c0-2.284.947-3.642 3.637-3.642h2.24v2.8h-1.4c-1.047 0-1.117.392-1.117 1.121l-.003 1.402h2.536l-.297 2.799z" fill="#ffffff" class="color000000 svgShape"></path>
  </g>
</svg>  
